<svg width="33" height="30" viewBox="0 0 33 30" fill="none" xmlns="http://www.w3.org/2000/svg">
  <path
    d="M8.99236 11.8051C8.71406 11.6109 8.43504 11.5138 8.15674 11.5138H6.90581V18.5096H8.15746C8.43576 18.5096 8.71478 18.4125 8.99308 18.2183C9.27138 18.0241 9.41054 17.7328 9.41054 17.3438V12.6797C9.40982 12.2913 9.26995 11.9993 8.99236 11.8051ZM29.3615 0H3.5253C1.7895 0 0.380768 1.31183 0.376465 2.93304V27.067C0.380768 28.6882 1.7895 30 3.5253 30H29.3615C31.098 30 32.5061 28.6882 32.5104 27.067V2.93304C32.5061 1.31183 31.0973 0 29.3615 0ZM11.4368 17.3565C11.4368 18.6161 10.6041 20.5246 7.9681 20.5205H4.63994V9.44062H8.03839C10.5804 9.44062 11.4354 11.3464 11.4361 12.6067L11.4368 17.3565ZM18.6584 11.4194H14.8367V13.9922H17.1729V15.9723H14.8367V18.5444H18.6591V20.5246H14.1991C13.3986 20.544 12.733 19.9533 12.7129 19.206V10.8281C12.6935 10.0815 13.3269 9.46138 14.1266 9.44263H18.6591L18.6584 11.4194ZM26.0922 19.1397C25.1454 21.1989 23.449 20.7891 22.6894 19.1397L19.9258 9.4433H22.2619L24.393 17.0585L26.5139 9.4433H28.8508L26.0922 19.1397Z"
    fill="#1aff1a" />
</svg>