<svg width="33" height="32" viewBox="0 0 33 32" fill="none" xmlns="http://www.w3.org/2000/svg">
  <path fill-rule="evenodd" clip-rule="evenodd"
    d="M16.2267 0C7.33477 0 0.146484 7.33333 0.146484 16.4057C0.146484 23.6577 4.75226 29.7963 11.1417 31.969C11.9405 32.1323 12.2332 31.616 12.2332 31.1817C12.2332 30.8013 12.2068 29.4977 12.2068 28.1393C7.7337 29.1173 6.8022 26.1837 6.8022 26.1837C6.08334 24.2823 5.01822 23.7937 5.01822 23.7937C3.55416 22.7887 5.12486 22.7887 5.12486 22.7887C6.74888 22.8973 7.60105 24.4727 7.60105 24.4727C9.03844 26.9713 11.3547 26.2653 12.2865 25.8307C12.4195 24.7713 12.8457 24.038 13.2983 23.6307C9.73064 23.2503 5.97703 21.838 5.97703 15.5363C5.97703 13.7437 6.61558 12.277 7.62738 11.1363C7.46774 10.729 6.90852 9.04467 7.78735 6.79033C7.78735 6.79033 9.14509 6.35567 12.2065 8.47433C13.5172 8.11522 14.8689 7.93254 16.2267 7.931C17.5845 7.931 18.9685 8.12133 20.2466 8.47433C23.3084 6.35567 24.6661 6.79033 24.6661 6.79033C25.5449 9.04467 24.9854 10.729 24.8257 11.1363C25.8642 12.277 26.4764 13.7437 26.4764 15.5363C26.4764 21.838 22.7228 23.223 19.1285 23.6307C19.7144 24.1467 20.22 25.1243 20.22 26.6727C20.22 28.8727 20.1936 30.6383 20.1936 31.1813C20.1936 31.616 20.4866 32.1323 21.2851 31.9693C27.6745 29.796 32.2803 23.6577 32.2803 16.4057C32.3066 7.33333 25.092 0 16.2267 0Z"
    fill="#1aff1a" />
</svg>