<svg width="34" height="33" viewBox="0 0 34 33" fill="none" xmlns="http://www.w3.org/2000/svg">
  <path
    d="M16.9797 0C14.606 0 2.97179 6.22988 1.79763 8.12988C0.622143 10.0311 0.622143 22.4788 1.79763 24.3726C2.97714 26.2713 14.6114 32.5 16.9797 32.5C19.3414 32.5 30.9757 26.2749 32.1593 24.3774C33.3468 22.4749 33.3468 10.0176 32.1593 8.12256V8.12012C30.9664 6.22387 19.3334 0 16.9797 0ZM16.9771 2.51465C19.2491 2.9559 28.2522 7.77096 29.8294 9.38721C30.5523 11.4385 30.551 21.0554 29.8294 23.1104C28.2629 24.7241 19.2518 29.5454 16.9771 29.9854C14.7038 29.5479 5.69923 24.729 4.13013 23.1128C3.41385 21.0528 3.41385 11.4447 4.13013 9.38721C5.69522 7.77096 14.7025 2.95215 16.9771 2.51465ZM12.9659 7.5L10.2882 10H11.627V22.5H14.3047V17.5H19.66V22.5H18.3212L20.9989 25L23.6765 22.5H22.3377V11.25H19.66V15H14.3047V10H15.6435L12.9659 7.5Z"
    fill="#1aff1a" />
</svg>