<svg width="33" height="30" viewBox="0 0 33 30" fill="none" xmlns="http://www.w3.org/2000/svg">
  <path
    d="M32.1549 25.8333C32.1549 28.135 30.1572 30 27.6918 30H4.48404C2.01955 30 0.0209961 28.135 0.0209961 25.8333V4.16667C0.0209961 1.865 2.01955 0 4.48404 0H27.6918C30.1572 0 32.1549 1.865 32.1549 4.16667V25.8333Z"
    fill="#1aff1a" />
  <path opacity="0.05"
    d="M21.4429 25.8332V17.4173C21.4429 16.0098 20.7119 15.169 19.4863 15.169C18.7588 15.169 18.2242 15.5515 17.8984 16.3057C17.8832 16.359 17.8618 16.5765 17.8707 17.234L17.8725 25.8332H11.6242V9.99984H17.8725V10.884C18.7847 10.2965 19.9032 9.99984 21.2091 9.99984C25.2677 9.99984 27.6903 12.5773 27.6903 16.8948L27.6912 25.8332H21.4429ZM4.48337 25.8332V9.99984H7.56911C5.78122 9.99984 4.48337 8.77317 4.48337 7.08234C4.48337 5.39317 5.80264 4.1665 7.61999 4.1665C9.41592 4.1665 10.695 5.359 10.7316 7.06567C10.7316 8.769 9.41146 9.99984 7.59411 9.99984H10.7316V25.8332H4.48337Z"
    fill="black" />
  <path opacity="0.07"
    d="M21.8901 25.4168V17.4177C21.8901 15.7735 20.9698 14.7527 19.4872 14.7527C18.3313 14.7527 17.76 15.5127 17.4851 16.1502C17.4119 16.316 17.4217 16.9743 17.4253 17.2552L17.4271 25.4168H12.0714V10.4168H17.4271V11.7818C18.1367 11.096 19.2792 10.4168 21.2099 10.4168C24.9883 10.4168 27.2449 12.8385 27.2449 16.8952L27.2457 25.4168H21.8901ZM4.93054 25.4168V10.4168H10.2862V25.4168H4.93054ZM7.56998 9.5835C6.04095 9.5835 4.93054 8.53183 4.93054 7.08266C4.93054 5.63433 6.06237 4.5835 7.62086 4.5835C9.15972 4.5835 10.2549 5.60766 10.2862 7.07433C10.2862 8.53183 9.15436 9.5835 7.59498 9.5835H7.56998Z"
    fill="black" />
  <path
    d="M5.37625 10.8333H9.83929V25H5.37625V10.8333ZM7.59438 9.16667H7.56939C6.23762 9.16667 5.37625 8.24 5.37625 7.0825C5.37625 5.9 6.2644 5 7.62027 5C8.97792 5 9.8143 5.9 9.83929 7.0825C9.83929 8.23917 8.97792 9.16667 7.59438 9.16667ZM26.7988 25H22.3358V17.4175C22.3358 15.5858 21.2424 14.3358 19.4866 14.3358C18.1468 14.3358 17.422 15.1792 17.0703 15.9942C16.9418 16.2858 16.9802 17.0925 16.9802 17.5V25H12.5171V10.8333H16.9802V13.0133C17.6237 12.0833 18.6315 10.8333 21.2093 10.8333C24.4031 10.8333 26.798 12.7083 26.798 16.895L26.7988 25Z"
    fill="black" />
</svg>