<svg width="78" height="20" viewBox="0 0 78 20" fill="none" xmlns="http://www.w3.org/2000/svg">
  <path fill-rule="evenodd" clip-rule="evenodd"
    d="M58.1758 18.0196C55.0554 18.0196 50.7204 18.1569 48.7772 15.4314C47.3197 13.4118 44.9841 7.47059 46.9087 5.17647C48.9453 2.7451 62.8658 2.07843 66.2478 2.07843C68.6581 2.07843 73.0305 2.19608 74.4132 4.13725C76.9917 7.7647 74.2263 11.4902 71.3301 13.7255C70.1903 14.6078 68.2844 15.7647 66.9391 16.2549C64.155 17.2549 61.3336 18.0196 58.1758 18.0196ZM44.4049 4.33333C43.3585 4.07843 41.8824 4.66666 40.9294 4.23529H37.6035C37.0242 4.5098 36.2395 4.33333 35.5481 4.49019C34.7447 4.21568 33.5862 4.29412 32.7453 4.01961C32.1474 3.82353 31.4187 3.31372 30.5405 3.01961C27.4948 2.03921 25.346 2 22.5433 1.43137C21.0671 1.13725 19.6844 1.11764 18.3204 1.09804C17.6851 1.07843 17.6104 0.921566 16.9004 0.901958C13.9294 0.745096 10.6595 0.70588 7.72597 0.43137C6.79171 0.333331 5.53981 0.43137 4.56818 0.411762C3.14811 0.411762 2.49413 0.235292 1.97095 1.23529C0.270603 4.47059 0.719046 8.68627 3.01732 11.4902C4.97925 13.8823 7.63254 15.7255 10.5661 17C15.3682 19.0784 27.0838 21.4314 30.8955 16.4314C32.8948 13.8039 33.9412 10.0784 33.8851 6.60784C36.2581 4.98039 42.144 4.98039 44.517 6.60784C44.6665 9.68627 44.7038 10.2745 45.6568 12.8627C46.2921 14.6078 47.2076 16.2353 48.4222 17.4314C49.4872 18.4706 52.1031 19.0392 53.8408 19.2353C60.8478 19.9804 70.4893 17.3529 75.1419 11.8823C76.9543 9.72549 76.8422 8.49019 77.4028 6.86274C77.7765 4.98039 77.328 2.60784 76.5246 1.2549C75.8893 0.176468 75.3848 0.352939 74.1142 0.294115C71.5543 0.176468 67.3876 0.588233 64.6782 0.686272C63.7626 0.725488 58.9793 1.03921 58.4934 1.21568C56.0083 1.37255 53.299 1.78431 50.8139 2.29412C47.7869 2.92157 48.3661 2.7647 45.9931 3.90196C45.3391 4.21568 44.8907 4.01961 44.4049 4.31372V4.33333ZM76.1696 7.88235C75.9827 8.96078 75.908 9.11765 75.4408 10.0392C72.0402 16.8431 58.9606 20.1961 51.7107 18.1373C48.3287 17.1765 47.3571 15.1765 46.0491 11.451C45.5633 10.0392 45.0962 7.82353 45.5073 6.19608C45.9557 4.43137 47.0955 3.88235 48.8519 3.39215C54.2145 1.94117 64.7903 0.941174 70.3959 1.66666C73.8526 2.09804 76.8235 4.13725 76.1696 7.86274V7.88235ZM2.96126 7.21568C2.96126 4.96078 4.21316 3.41176 5.87614 2.80392C10.1363 1.27451 24.7855 2.58823 29.2886 4C31.1571 4.58823 32.2408 5.07843 32.2408 7.54902C32.2408 10.3529 30.8208 13.7255 29.7184 15.3529C27.8872 18.0588 23.5896 18 20.544 18C16.1716 18 12.1917 16.7451 9.3142 15.1765C6.99725 13.902 2.97995 10.7451 2.97995 7.19608L2.96126 7.21568ZM13.7239 1.47059C17.6478 1.47059 25.4208 2.31372 29.2886 3.33333C31.0076 3.78431 32.0914 4.21568 32.7267 5.72549C33.8291 8.35294 31.9979 12.8235 30.8768 14.9216C30.1294 16.3333 29.382 17.2157 27.7564 17.8039C23.2533 19.451 16.9004 18.6274 12.7149 17.2549C9.01524 16.0392 4.25053 13.0196 2.68098 9.49019C1.2796 6.31372 2.77441 3.11764 5.74534 2.15686C8.13704 1.37255 11.2388 1.47059 13.7239 1.47059Z"
    fill="#1aff1a" />
</svg>