<svg width="33" height="25" viewBox="0 0 33 25" fill="none" xmlns="http://www.w3.org/2000/svg">
  <path
    d="M32.8326 2.88625C31.6504 3.37625 30.3797 3.70625 29.0462 3.855C30.4079 3.09375 31.4535 1.8875 31.9449 0.45C30.6716 1.155 29.2604 1.6675 27.7581 1.94375C26.5571 0.7475 24.842 0 22.9461 0C18.6897 0 15.562 3.7075 16.5233 7.55625C11.0458 7.3 6.18827 4.85 2.93605 1.12625C1.20886 3.8925 2.04032 7.51125 4.97522 9.34375C3.89605 9.31125 2.87848 9.035 1.99078 8.57375C1.91848 11.425 4.1076 14.0925 7.27814 14.6862C6.35028 14.9212 5.33404 14.9763 4.3004 14.7913C5.13856 17.2362 7.57271 19.015 10.4594 19.065C7.68785 21.0938 4.19597 22 0.69873 21.615C3.61622 23.3613 7.08266 24.38 10.8048 24.38C23.0452 24.38 29.9607 14.7288 29.5429 6.0725C30.8309 5.20375 31.9489 4.12 32.8326 2.88625Z"
    fill="#1aff1a" />
</svg>