<svg width="33" height="24" viewBox="0 0 33 24" fill="none" xmlns="http://www.w3.org/2000/svg">
  <path
    d="M31.8938 19.3972C31.5732 21.0331 30.2111 22.2797 28.5285 22.5134C25.884 22.9027 21.4766 23.3701 16.5082 23.3701C11.6202 23.3701 7.21277 22.9027 4.48796 22.5134C2.80531 22.2797 1.44254 21.0331 1.12266 19.3972C0.802054 17.6057 0.481445 14.9569 0.481445 11.6851C0.481445 8.41324 0.802054 5.76438 1.12266 3.97292C1.44327 2.33701 2.80531 1.09036 4.48796 0.85666C7.13243 0.467402 11.5399 0 16.5082 0C21.4766 0 25.8037 0.467402 28.5285 0.85666C30.2111 1.09036 31.5739 2.33701 31.8938 3.97292C32.2144 5.76438 32.6153 8.41324 32.6153 11.6851C32.535 14.9569 32.2144 17.6057 31.8938 19.3972Z"
    fill="url(#paint0_linear_102_23)" />
  <path opacity="0.05"
    d="M23.2318 11.1298L14.8799 5.56188C14.4585 5.28071 13.9203 5.25442 13.4741 5.49396C13.0279 5.73277 12.7503 6.19506 12.7503 6.70117V17.837C12.7503 18.3431 13.0279 18.8062 13.4741 19.045C13.6771 19.1538 13.8984 19.2071 14.1197 19.2071C14.3855 19.2071 14.6499 19.1297 14.8792 18.977L23.2311 13.4091C23.6131 13.1542 23.8409 12.7285 23.8409 12.2698C23.8416 11.8105 23.6131 11.3847 23.2318 11.1298Z"
    fill="black" />
  <path opacity="0.07"
    d="M14.7084 5.86944L22.5886 11.1233C23.0917 11.4848 23.4306 11.8084 23.4306 12.2283C23.4306 12.6482 23.267 12.9411 22.9084 13.2025C22.6375 13.3997 14.8421 18.5806 14.8421 18.5806C14.1841 19.0217 13.1156 18.9282 13.1156 17.4858V6.97003C13.1156 5.50574 14.2725 5.57878 14.7084 5.86944Z"
    fill="black" />
  <path
    d="M13.4809 17.7961V6.74279C13.4809 6.20017 14.0856 5.87591 14.5377 6.17753L22.8282 11.7046C23.2321 11.9733 23.2321 12.5663 22.8282 12.8358L14.5377 18.3628C14.0856 18.663 13.4809 18.3395 13.4809 17.7961Z"
    fill="black" />
  <defs>
    <linearGradient id="paint0_linear_102_23" x1="6.18959" y1="1.36642" x2="29.1434" y2="24.3202"
      gradientUnits="userSpaceOnUse">
      <stop stop-color="#1aff1a" />
      <stop offset="0.443" stop-color="#1aff1a" />
      <stop offset="1" stop-color="#1aff1a" />
    </linearGradient>
  </defs>
</svg>